<svg version="1.1" viewBox="0.0 0.0 960.0 720.0" fill="none" stroke="none" stroke-linecap="square" stroke-miterlimit="10" xmlns:xlink="http://www.w3.org/1999/xlink" xmlns="http://www.w3.org/2000/svg"><clipPath id="p.0"><path d="m0 0l960.0 0l0 720.0l-960.0 0l0 -720.0z" clip-rule="nonzero"/></clipPath><g clip-path="url(#p.0)"><path fill="#000000" fill-opacity="0.0" d="m0 0l960.0 0l0 720.0l-960.0 0z" fill-rule="evenodd"/><path fill="#e0e0e0" d="m234.64568 161.65355l0 0c0 -25.326828 20.531433 -45.858276 45.85826 -45.858276l398.9921 0c12.162415 0 23.8266 4.831482 32.426697 13.43158c8.600098 8.600098 13.43158 20.264328 13.43158 32.426697l0 0l0 0c0 25.326813 -20.531433 45.85826 -45.858276 45.85826l-398.9921 0c-25.326828 0 -45.85826 -20.531448 -45.85826 -45.85826z" fill-rule="evenodd"/><path fill="#e0e0e0" d="m234.64568 314.14172l0 0c0 -25.326813 20.531433 -45.858246 45.85826 -45.858246l398.9921 0c12.162415 0 23.8266 4.831482 32.426697 13.431549c8.600098 8.600098 13.43158 20.264343 13.43158 32.426697l0 0l0 0c0 25.326843 -20.531433 45.858276 -45.858276 45.858276l-398.9921 0c-25.326828 0 -45.85826 -20.531433 -45.85826 -45.858276z" fill-rule="evenodd"/><path fill="#e0e0e0" d="m234.64568 466.6299l0 0c0 -25.326813 20.531433 -45.858246 45.85826 -45.858246l398.9921 0c12.162415 0 23.8266 4.831482 32.426697 13.431549c8.600098 8.600098 13.43158 20.264343 13.43158 32.426697l0 0l0 0c0 25.326843 -20.531433 45.858246 -45.858276 45.858246l-398.9921 0c-25.326828 0 -45.85826 -20.531403 -45.85826 -45.858246z" fill-rule="evenodd"/></g></svg>
