<?xml version="1.0" encoding="utf-8"?>
<!-- Generator: Adobe Illustrator 24.2.1, SVG Export Plug-In . SVG Version: 6.00 Build 0)  -->
<svg version="1.1" xmlns="http://www.w3.org/2000/svg" xmlns:xlink="http://www.w3.org/1999/xlink" x="0px" y="0px"
	 viewBox="0 0 540.13 499.83" style="enable-background:new 0 0 540.13 499.83;" xml:space="preserve">
<style type="text/css">
	.st0{fill:none;stroke:#474546;stroke-width:104;stroke-miterlimit:10;stroke-dasharray:7.6035,57.0261;}
	.st1{fill:none;stroke:#474546;stroke-width:45;stroke-miterlimit:10;}
	.st2{fill:#4A494A;}
	.st3{fill:none;stroke:#FEDE3D;stroke-width:34;stroke-linejoin:round;stroke-miterlimit:10;}
	.st4{fill:none;stroke:#635623;stroke-width:11;stroke-linejoin:round;stroke-miterlimit:10;}
	.st5{fill:#666766;}
</style>
<symbol  id="Wheel_of_Time" viewBox="-269 -245.42 538 490.83">
	<g>
		<circle class="st0" cx="0" cy="-78.72" r="72"/>
	</g>
	<circle class="st1" cx="0" cy="-78.72" r="144.16"/>
	<circle class="st2" cx="0" cy="-78.72" r="37.82"/>
	<circle class="st3" cx="-126" cy="102.42" r="126"/>
	<circle class="st4" cx="-126" cy="102.42" r="126"/>
	<circle class="st3" cx="126" cy="102.42" r="126"/>
	<circle class="st4" cx="126" cy="102.42" r="126"/>
	<path class="st3" d="M-10.7,152.96c8.65-21.11,11.5-44.39,7.96-67.2"/>
	<path class="st4" d="M21.52,31.97C16.33,39.7,9.31,51.87,4.78,67.92c-5.73,20.31-3.34,32.22-5.72,49.94
		c-1.92,14.33-7.27,34.71-23.08,58.57"/>
	<circle class="st5" cx="0" cy="-78.72" r="14.92"/>
</symbol>
<g id="Layer_1">
	
		<use xlink:href="#Wheel_of_Time"  width="538" height="490.83" id="XMLID_1_" x="-269" y="-245.42" transform="matrix(1 0 0 -1 270.6378 253.9359)" style="overflow:visible;"/>
</g>
<g id="Layer_2">
</g>
</svg>
